<svg id="draw.id" overflow="visible" v:layers="{&quot;default&quot;:{&quot;name&quot;:&quot;Default&quot;,&quot;print&quot;:1,&quot;display&quot;:1,&quot;publish&quot;:1}}" v:ver="2" x="500.5" xmlns="http://www.w3.org/2000/svg" xmlns:v="http://vecta.io" xmlns:xlink="http://www.w3.org/1999/xlink" y="500.5" v:stencils="{&quot;0&quot;:{&quot;id&quot;:&quot;stencil_65&quot;,&quot;expand&quot;:1,&quot;show_name&quot;:1}}"><style xmlns="http://www.w3.org/1999/xhtml"><![CDATA[#draw\.id{stroke:#000;stroke-linecap:round;stroke-linejoin:round;fill:#fff;fill-rule:evenodd;font-family:Roboto;font-size:14px;text-anchor:middle}#draw\.id text{paint-order:stroke;white-space:pre}#draw\.id .Text\.cls{stroke:none}]]></style><defs><style type="text/css">@import url("https://fonts.googleapis.com/css?family=Roboto+Condensed:400,400i,700,700i"); @import url("https://fonts.googleapis.com/css?family=Roboto:400,400i,700,700i"); @import url("https://fonts.googleapis.com/css?family=Cousine:400,400i,700,700i"); @import url("https://fonts.googleapis.com/css?family=Anonymous+Pro:400,400i,700,700i"); @import url("https://fonts.googleapis.com/css?family=Lato:400,400i,700,700i"); @import url("https://fonts.googleapis.com/css?family=Open+Sans:400,400i,700,700i");</style></defs><title xmlns="http://www.w3.org/1999/xhtml">Untitled drawing</title><desc xmlns="http://www.w3.org/1999/xhtml"></desc><svg height="291.59999999999997" id="kzdj8yue3d" overflow="visible" v:setup="{&quot;paper&quot;:&quot;CUSTOM&quot;,&quot;unit&quot;:&quot;px&quot;,&quot;scale&quot;:{&quot;from&quot;:&quot;1&quot;,&quot;to&quot;:&quot;1&quot;},&quot;width&quot;:828,&quot;height&quot;:243,&quot;margin&quot;:{&quot;top&quot;:&quot;0&quot;,&quot;bottom&quot;:&quot;0&quot;,&quot;left&quot;:&quot;0&quot;,&quot;right&quot;:&quot;0&quot;}}" viewBox="0 0 828 243" width="993.5999999999999"><g id="l6wb57bom0" v:abox="{&quot;x&quot;:55,&quot;y&quot;:10,&quot;width&quot;:827.1040265502929,&quot;height&quot;:242.02612458589462}" class="Group.cls" transform="translate(55 10)"><g class="Prim.cls"><g id="l6wb57b0lk" transform="translate(350.99996185302734 222.0260245858946)"><path d="M 6.742 20.0001 L 6.742 10.8771 L 9.804 10.8771 L 10.262 7.3221 L 6.742 7.3221 L 6.742 5.0521 C 6.742 4.0221 7.027 3.3211 8.504 3.3211 L 10.386 3.3201 L 10.386 0.1401 C 9.475 0.0441 8.559 -0.0029 7.643 0.0001 C 4.929 0.0001 3.07 1.6571 3.07 4.7001 L 3.07 7.3221 L 0 7.3221 L 0 10.8771 L 3.07 10.8771 L 3.07 20.0001 L 6.742 20.0001 Z" fill-rule="nonzero" stroke="none" stroke-linejoin="miter" stroke-linecap="butt" fill="#000000" stroke-width="1.0000000238418927"/></g><g id="l6wb57b1ll" transform="translate(412.99996185302734 223.0263435527318)"><path d="M 22 2.1568 C 21.173 2.5168 20.299 2.7548 19.404 2.8638 C 20.348 2.2968 21.055 1.4058 21.395 0.3538 C 20.508 0.8848 19.537 1.2588 18.524 1.4598 C 17.847 0.7218 16.945 0.2308 15.961 0.0638 C 14.976 -0.1042 13.964 0.0618 13.083 0.5348 C 12.202 1.0078 11.503 1.7608 11.094 2.6768 C 10.685 3.5928 10.59 4.6188 10.824 5.5948 C 9.03 5.5038 7.276 5.0338 5.675 4.2168 C 4.073 3.3998 2.661 2.2528 1.529 0.8518 C 1.132 1.5488 0.923 2.3378 0.924 3.1398 C 0.923 3.8858 1.105 4.6198 1.454 5.2778 C 1.803 5.9358 2.309 6.4968 2.926 6.9098 C 2.209 6.8908 1.507 6.6968 0.88 6.3468 L 0.88 6.4018 C 0.885 7.4468 1.25 8.4568 1.911 9.2628 C 2.572 10.0688 3.491 10.6198 4.51 10.8238 C 4.118 10.9438 3.71 11.0068 3.3 11.0118 C 3.016 11.0088 2.733 10.9828 2.453 10.9348 C 2.743 11.8328 3.305 12.6188 4.06 13.1808 C 4.815 13.7438 5.726 14.0558 6.666 14.0748 C 5.079 15.3298 3.119 16.0148 1.1 16.0198 C 0.732 16.0218 0.365 15.9988 0 15.9538 C 2.062 17.2918 4.465 18.0018 6.919 17.9988 C 8.613 18.0168 10.293 17.6948 11.861 17.0528 C 13.43 16.4108 14.856 15.4608 16.055 14.2588 C 17.254 13.0558 18.203 11.6258 18.846 10.0508 C 19.489 8.4758 19.813 6.7888 19.8 5.0858 C 19.8 4.8978 19.8 4.6988 19.8 4.4998 C 20.663 3.8528 21.408 3.0598 22 2.1568 L 22 2.1568 Z" fill-rule="nonzero" stroke="none" stroke-linejoin="miter" stroke-linecap="butt" fill="#000000" stroke-width="1.0000000238418927"/></g><g id="l6wb57b1lm" transform="translate(486.9999771118164 223.02649618890055)"><path d="M 25.994 6.3437 C 26.052 4.6777 25.683 3.0247 24.919 1.5377 C 24.401 0.9277 23.682 0.5157 22.888 0.3737 C 19.601 0.0807 16.302 -0.0403 13.002 0.0137 C 9.715 -0.0423 6.427 0.0737 3.152 0.3627 C 2.505 0.4787 1.905 0.7777 1.428 1.2237 C 0.365 2.1897 0.247 3.8417 0.129 5.2377 C -0.043 7.7487 -0.043 10.2677 0.129 12.7787 C 0.163 13.5647 0.281 14.3447 0.483 15.1057 C 0.625 15.6937 0.913 16.2367 1.321 16.6877 C 1.802 17.1577 2.416 17.4737 3.081 17.5957 C 5.627 17.9057 8.193 18.0337 10.758 17.9797 C 14.892 18.0377 18.518 17.9797 22.805 17.6537 C 23.487 17.5397 24.118 17.2227 24.612 16.7467 C 24.943 16.4207 25.19 16.0217 25.333 15.5827 C 25.755 14.3057 25.962 12.9697 25.947 11.6267 C 25.994 10.9747 25.994 7.0417 25.994 6.3437 Z M 10.333 12.3247 L 10.333 5.1217 L 17.325 8.7407 C 15.364 9.8107 12.778 11.0217 10.333 12.3247 Z" fill-rule="nonzero" stroke="none" stroke-linejoin="miter" stroke-linecap="butt" fill="#000000" stroke-width="1.0000000238418927"/></g><g id="l6wb57b2ln" transform="translate(0 17.96715307383741)" class=""><path d="M 48.13 24.41 C 47.996 24.554 47.877 24.712 47.775 24.881 C 47.658 25.031 47.568 25.2 47.509 25.381 C 47.419 25.557 47.359 25.746 47.332 25.941 C 47.212 26.505 47.274 27.092 47.509 27.619 C 47.642 27.984 47.853 28.316 48.129 28.591 C 48.405 28.866 48.738 29.077 49.105 29.209 C 49.455 29.374 49.84 29.455 50.227 29.445 C 50.611 29.449 50.993 29.379 51.35 29.238 C 51.703 29.068 52.031 28.85 52.325 28.591 C 52.599 28.316 52.815 27.989 52.963 27.631 C 53.11 27.272 53.184 26.888 53.182 26.5 C 53.192 26.114 53.111 25.731 52.945 25.381 C 52.796 25.024 52.586 24.696 52.325 24.41 C 52.049 24.137 51.722 23.921 51.362 23.774 C 51.002 23.628 50.616 23.553 50.227 23.556 C 49.841 23.56 49.46 23.64 49.105 23.791 C 48.742 23.931 48.411 24.142 48.13 24.41 Z M 35.957 36.658 C 35.84 36.809 35.75 36.978 35.691 37.159 C 35.58 37.331 35.5 37.52 35.455 37.718 C 35.366 38.096 35.366 38.489 35.455 38.867 L 35.632 39.397 L 35.898 39.927 L 36.252 40.368 C 36.833 40.92 37.606 41.227 38.409 41.222 C 38.798 41.225 39.183 41.15 39.543 41.004 C 39.903 40.857 40.231 40.641 40.507 40.368 C 40.768 40.082 40.978 39.754 41.127 39.397 C 41.311 38.951 41.382 38.466 41.334 37.987 C 41.287 37.507 41.121 37.046 40.853 36.645 C 40.584 36.243 40.221 35.914 39.795 35.685 C 39.369 35.457 38.893 35.336 38.409 35.333 C 37.627 35.344 36.878 35.649 36.311 36.187 L 35.957 36.658 Z M 48.13 36.187 C 47.861 36.467 47.65 36.798 47.509 37.159 C 47.261 37.692 47.179 38.287 47.273 38.867 L 47.45 39.397 C 47.515 39.584 47.604 39.763 47.716 39.927 C 47.825 40.081 47.943 40.229 48.07 40.368 C 48.351 40.637 48.683 40.847 49.045 40.987 C 49.399 41.143 49.782 41.223 50.168 41.223 C 50.555 41.223 50.937 41.143 51.291 40.987 C 51.649 40.838 51.979 40.629 52.266 40.368 C 52.55 40.098 52.778 39.774 52.935 39.415 C 53.093 39.056 53.176 38.67 53.182 38.278 C 53.192 37.892 53.111 37.508 52.945 37.159 C 52.796 36.802 52.586 36.474 52.325 36.187 C 52.038 35.927 51.708 35.718 51.35 35.569 C 50.996 35.413 50.614 35.333 50.227 35.333 C 49.841 35.333 49.458 35.413 49.105 35.569 C 48.742 35.709 48.411 35.919 48.13 36.187 Z M 35.691 27.619 C 35.832 27.98 36.042 28.311 36.311 28.591 C 36.878 29.129 37.627 29.434 38.409 29.445 C 38.893 29.442 39.369 29.321 39.795 29.093 C 40.221 28.864 40.584 28.535 40.853 28.133 C 41.121 27.732 41.287 27.271 41.334 26.792 C 41.382 26.312 41.311 25.827 41.127 25.381 C 40.978 25.024 40.768 24.696 40.507 24.41 C 40.231 24.137 39.903 23.921 39.543 23.774 C 39.183 23.628 38.798 23.553 38.409 23.556 C 37.627 23.567 36.878 23.872 36.311 24.41 C 35.901 24.824 35.624 25.349 35.513 25.921 C 35.403 26.492 35.465 27.083 35.691 27.619 Z M 48.13 12.632 C 47.869 12.918 47.659 13.247 47.509 13.603 C 47.283 14.14 47.221 14.731 47.331 15.302 C 47.442 15.873 47.72 16.399 48.13 16.813 C 48.411 17.081 48.742 17.291 49.105 17.431 C 49.458 17.587 49.841 17.668 50.227 17.668 C 50.614 17.668 50.996 17.587 51.35 17.431 C 51.708 17.282 52.038 17.073 52.325 16.813 C 52.599 16.538 52.815 16.212 52.963 15.853 C 53.11 15.494 53.184 15.11 53.182 14.722 C 53.192 14.336 53.111 13.953 52.945 13.603 C 52.796 13.247 52.586 12.918 52.325 12.632 C 51.91 12.223 51.382 11.947 50.809 11.836 C 50.236 11.726 49.643 11.788 49.105 12.013 C 48.742 12.154 48.411 12.364 48.13 12.632 Z M 11.8182 14.722 L 11.8182 38.278 C 11.8182 39.059 12.1295 39.808 12.6835 40.36 C 13.2376 40.912 13.9891 41.222 14.7727 41.222 L 26.5909 41.222 C 27.375 41.222 28.126 40.912 28.68 40.36 C 29.234 39.808 29.545 39.059 29.545 38.278 L 29.545 14.722 C 29.545 13.941 29.234 13.193 28.68 12.64 C 28.126 12.088 27.375 11.778 26.5909 11.778 L 14.7727 11.778 C 13.9891 11.778 13.2376 12.088 12.6835 12.64 C 12.1295 13.193 11.8182 13.941 11.8182 14.722 Z M 23.6364 17.667 L 23.6364 35.333 L 17.7273 35.333 L 17.7273 17.667 L 23.6364 17.667 Z M 0 8.833 L 0 44.167 C 0 46.51 0.9338 48.756 2.5961 50.413 C 4.2584 52.07 6.5129 53 8.8636 53 L 56.136 53 C 58.487 53 60.742 52.07 62.404 50.413 C 64.066 48.756 65 46.51 65 44.167 L 65 8.833 C 65 6.491 64.066 4.244 62.404 2.587 C 60.742 0.931 58.487 0 56.136 0 L 8.8636 0 C 6.5129 0 4.2584 0.931 2.5961 2.587 C 0.9338 4.244 0 6.491 0 8.833 Z M 56.136 5.889 C 56.92 5.889 57.671 6.199 58.226 6.751 C 58.78 7.304 59.091 8.053 59.091 8.833 L 59.091 44.167 C 59.091 44.948 58.78 45.697 58.226 46.249 C 57.671 46.801 56.92 47.111 56.136 47.111 L 8.8636 47.111 C 8.08 47.111 7.3285 46.801 6.7745 46.249 C 6.2204 45.697 5.9091 44.948 5.9091 44.167 L 5.9091 8.833 C 5.9091 8.053 6.2204 7.304 6.7745 6.751 C 7.3285 6.199 8.08 5.889 8.8636 5.889 L 56.136 5.889 Z M 35.957 13.103 C 35.84 13.253 35.75 13.423 35.691 13.603 C 35.601 13.779 35.541 13.968 35.514 14.163 C 35.425 14.541 35.425 14.934 35.514 15.311 L 35.691 15.841 L 35.957 16.371 L 36.311 16.813 C 36.878 17.351 37.627 17.656 38.409 17.667 C 38.893 17.664 39.369 17.544 39.795 17.315 C 40.221 17.086 40.584 16.757 40.853 16.356 C 41.121 15.954 41.287 15.494 41.334 15.014 C 41.382 14.534 41.311 14.05 41.127 13.603 C 40.978 13.247 40.768 12.918 40.507 12.632 C 40.231 12.359 39.903 12.143 39.543 11.997 C 39.183 11.85 38.798 11.776 38.409 11.778 C 37.627 11.789 36.878 12.094 36.311 12.632 L 35.957 13.103 Z" fill-rule="nonzero" stroke="none" stroke-linejoin="miter" stroke-linecap="butt" fill="#ff3343" stroke-width="1.0000000238418927"/><g transform="translate(0 0)" class="Text.cls"><rect x="0" y="0" width="65" height="53" fill="none" stroke="none"/><text fill="#000000" fill-opacity="1"/></g></g><g id="l6wb57b4lo" transform="translate(11.603013141889107 0.000032480430604664434)"><path d="M 0.4892 1.0301 C 0.332 1.1901 0.2079 1.3791 0.124 1.5871 C 0.0401 1.7941 -0.002 2.0161 0.0001 2.2401 L 0.1385 12.4451 C 0.1424 12.6691 0.1905 12.8901 0.2801 13.0951 C 0.3696 13.3011 0.4988 13.4861 0.6602 13.6411 C 0.8198 13.7991 1.0089 13.9231 1.2166 14.0071 C 1.4242 14.0911 1.6464 14.1331 1.8704 14.1311 L 8.6814 14.0381 L 34.987 13.6811 C 35.211 13.6781 35.432 13.6291 35.637 13.5401 C 35.842 13.4501 36.028 13.3211 36.183 13.1601 L 41.216 7.9881 C 41.531 7.6651 41.705 7.2301 41.699 6.7781 C 41.692 6.3271 41.507 5.8961 41.184 5.5821 L 36.012 0.5491 C 35.851 0.3731 35.654 0.2341 35.435 0.1391 C 35.216 0.0451 34.98 -0.0029 34.741 0.0001 L 8.5089 0.4281 L 1.7451 0.4481 C 1.5187 0.4571 1.2956 0.5051 1.085 0.5891 C 0.9786 0.6751 0.883 0.7731 0.8001 0.8821 C 0.7391 0.9331 0.6835 0.9901 0.6339 1.0521 L 0.4892 1.0301 Z M 34.138 3.4751 L 37.59 6.8341 L 34.231 10.2861 L 10.332 10.6101 L 10.2396 3.7991 L 34.138 3.4751 Z M 6.8462 3.8451 L 6.9385 10.6561 L 3.5328 10.6901 L 3.4408 3.9031 L 6.8462 3.8451 Z" fill-rule="nonzero" stroke="none" stroke-linejoin="miter" stroke-linecap="butt" fill="#ff3343" stroke-width="1.0000000238418927"/></g><g id="l6wb57b5lp" transform="translate(382.99996185302734 13.026158811142096)" class=""><path d="M 27.562 36.6 L 15.312 36.6 C 14.5 36.6 13.721 36.921 13.147 37.493 C 12.573 38.065 12.25 38.841 12.25 39.65 C 12.25 40.459 12.573 41.235 13.147 41.807 C 13.721 42.379 14.5 42.7 15.312 42.7 L 27.562 42.7 C 28.375 42.7 29.154 42.379 29.728 41.807 C 30.302 41.235 30.625 40.459 30.625 39.65 C 30.625 38.841 30.302 38.065 29.728 37.493 C 29.154 36.921 28.375 36.6 27.562 36.6 Z M 39.812 6.1 L 36.199 6.1 C 35.567 4.32 34.398 2.779 32.852 1.686 C 31.305 0.594 29.458 0.005 27.562 0 L 21.438 0 C 19.542 0.005 17.695 0.594 16.148 1.686 C 14.602 2.779 13.433 4.32 12.801 6.1 L 9.188 6.1 C 6.751 6.1 4.414 7.064 2.691 8.78 C 0.968 10.496 0 12.823 0 15.25 L 0 51.85 C 0 54.277 0.968 56.604 2.691 58.32 C 4.414 60.036 6.751 61 9.188 61 L 39.812 61 C 42.249 61 44.586 60.036 46.309 58.32 C 48.032 56.604 49 54.277 49 51.85 L 49 15.25 C 49 12.823 48.032 10.496 46.309 8.78 C 44.586 7.064 42.249 6.1 39.812 6.1 L 39.812 6.1 Z M 18.375 9.15 C 18.375 8.341 18.698 7.565 19.272 6.993 C 19.846 6.421 20.625 6.1 21.438 6.1 L 27.562 6.1 C 28.375 6.1 29.154 6.421 29.728 6.993 C 30.302 7.565 30.625 8.341 30.625 9.15 L 30.625 12.2 L 18.375 12.2 L 18.375 9.15 Z M 42.875 51.85 C 42.875 52.659 42.552 53.435 41.978 54.007 C 41.404 54.579 40.625 54.9 39.812 54.9 L 9.188 54.9 C 8.375 54.9 7.596 54.579 7.022 54.007 C 6.448 53.435 6.125 52.659 6.125 51.85 L 6.125 15.25 C 6.125 14.441 6.448 13.665 7.022 13.093 C 7.596 12.521 8.375 12.2 9.188 12.2 L 12.25 12.2 L 12.25 15.25 C 12.25 16.059 12.573 16.835 13.147 17.407 C 13.721 17.979 14.5 18.3 15.312 18.3 L 33.688 18.3 C 34.5 18.3 35.279 17.979 35.853 17.407 C 36.427 16.835 36.75 16.059 36.75 15.25 L 36.75 12.2 L 39.812 12.2 C 40.625 12.2 41.404 12.521 41.978 13.093 C 42.552 13.665 42.875 14.441 42.875 15.25 L 42.875 51.85 Z M 33.688 24.4 L 15.312 24.4 C 14.5 24.4 13.721 24.721 13.147 25.293 C 12.573 25.865 12.25 26.641 12.25 27.45 C 12.25 28.259 12.573 29.035 13.147 29.607 C 13.721 30.179 14.5 30.5 15.312 30.5 L 33.688 30.5 C 34.5 30.5 35.279 30.179 35.853 29.607 C 36.427 29.035 36.75 28.259 36.75 27.45 C 36.75 26.641 36.427 25.865 35.853 25.293 C 35.279 24.721 34.5 24.4 33.688 24.4 Z" fill-rule="nonzero" stroke="none" stroke-linejoin="miter" stroke-linecap="butt" fill="#000000" stroke-width="1.0000000238418927"/></g><g id="l6wb57b6lq" transform="translate(763.9999923706055 13.02610430046488)" class=""><path d="M 45.2471 12.5161 L 33.446 0.6101 C 33.25 0.415 33.0171 0.2611 32.761 0.1561 C 32.504 0.051 32.23 -0.0019 31.953 0.0001 C 31.401 0.0021 30.8721 0.221 30.4811 0.6101 L 0.6121 30.374 C 0.22 30.7681 0 31.301 0 31.857 C 0 32.4121 0.22 32.9461 0.6121 33.3401 L 12.5171 45.245 C 12.714 45.4401 12.947 45.594 13.203 45.6991 C 13.459 45.8041 13.734 45.857 14.011 45.8551 C 14.562 45.8531 15.0911 45.6341 15.483 45.245 L 21.436 39.2921 L 39.2941 21.4341 L 45.2471 15.4811 C 45.639 15.0871 45.859 14.5541 45.859 13.9981 C 45.859 13.443 45.639 12.9101 45.2471 12.5161 L 45.2471 12.5161 Z M 37.801 16.9751 L 36.307 15.4811 C 35.9131 15.0901 35.38 14.87 34.824 14.87 C 34.269 14.87 33.735 15.0901 33.3411 15.4811 C 33.144 15.6771 32.988 15.9101 32.881 16.1661 C 32.774 16.4221 32.719 16.6971 32.719 16.9751 C 32.719 17.2531 32.774 17.527 32.881 17.7841 C 32.988 18.04 33.144 18.273 33.3411 18.4681 L 34.8351 19.9621 L 31.848 22.928 L 27.389 18.4681 C 26.9861 18.124 26.469 17.9441 25.9391 17.9641 C 25.41 17.9851 24.9081 18.204 24.5331 18.579 C 24.1581 18.9531 23.9391 19.4551 23.9181 19.9851 C 23.8981 20.5141 24.078 21.0321 24.423 21.4341 L 28.8821 25.8931 L 25.895 28.8801 L 24.423 27.387 C 24.027 26.9911 23.489 26.7681 22.9291 26.7681 C 22.369 26.7681 21.832 26.9911 21.436 27.387 C 21.04 27.7831 20.817 28.3201 20.817 28.8801 C 20.817 29.441 21.04 29.9781 21.436 30.374 L 22.9291 31.846 L 19.963 34.833 L 15.483 30.374 C 15.089 29.982 14.556 29.762 14 29.762 C 13.444 29.762 12.911 29.982 12.5171 30.374 C 12.125 30.7681 11.906 31.301 11.906 31.857 C 11.906 32.4121 12.125 32.9461 12.5171 33.3401 L 16.9761 37.7991 L 14.011 40.786 L 5.071 31.846 L 31.848 5.0691 L 40.7881 14.0091 L 37.801 16.9751 Z" fill-rule="nonzero" stroke="none" stroke-linejoin="miter" stroke-linecap="butt" fill="#ff3343" stroke-width="1.0000000238418927"/></g><g id="l6wb57b7lr" transform="translate(785.035026550293 31.95715856700147)"><path d="M 2.103 42.069 L 39.965 42.069 C 40.5229 42.069 41.058 41.847 41.452 41.453 C 41.847 41.058 42.069 40.523 42.069 39.966 L 42.069 2.103 C 42.069 1.546 41.847 1.011 41.452 0.616 C 41.058 0.222 40.5229 0 39.965 0 L 27.344 0 C 26.787 0 26.251 0.222 25.8571 0.616 C 25.463 1.011 25.241 1.546 25.241 2.103 L 25.241 25.241 L 2.103 25.241 C 1.545 25.241 1.01 25.463 0.616 25.857 C 0.2209 26.252 0 26.787 0 27.345 L 0 39.966 C 0 40.523 0.2209 41.058 0.616 41.453 C 1.01 41.847 1.545 42.069 2.103 42.069 L 2.103 42.069 Z M 4.2061 29.448 L 8.413 29.448 L 8.413 31.552 C 8.413 32.11 8.635 32.645 9.0291 33.039 C 9.424 33.434 9.959 33.655 10.517 33.655 C 11.075 33.655 11.61 33.434 12.004 33.039 C 12.399 32.645 12.62 32.11 12.62 31.552 L 12.62 29.448 L 16.827 29.448 L 16.827 31.552 C 16.827 32.11 17.049 32.645 17.443 33.039 C 17.838 33.434 18.373 33.655 18.931 33.655 C 19.488 33.655 20.0229 33.434 20.418 33.039 C 20.812 32.645 21.0339 32.11 21.0339 31.552 L 21.0339 29.448 L 25.241 29.448 L 25.241 31.552 C 25.241 32.11 25.463 32.645 25.8571 33.039 C 26.251 33.434 26.787 33.655 27.344 33.655 C 27.902 33.655 28.437 33.434 28.832 33.039 C 29.226 32.645 29.448 32.11 29.448 31.552 L 29.448 29.448 L 31.551 29.448 C 32.109 29.448 32.644 29.227 33.0389 28.832 C 33.433 28.438 33.655 27.903 33.655 27.345 C 33.655 26.787 33.433 26.252 33.0389 25.857 C 32.644 25.463 32.109 25.241 31.551 25.241 L 29.448 25.241 L 29.448 21.035 L 31.551 21.035 C 32.109 21.035 32.644 20.813 33.0389 20.418 C 33.433 20.024 33.655 19.489 33.655 18.931 C 33.655 18.373 33.433 17.838 33.0389 17.444 C 32.644 17.049 32.109 16.828 31.551 16.828 L 29.448 16.828 L 29.448 12.621 L 31.551 12.621 C 32.109 12.621 32.644 12.399 33.0389 12.005 C 33.433 11.61 33.655 11.075 33.655 10.517 C 33.655 9.959 33.433 9.424 33.0389 9.03 C 32.644 8.635 32.109 8.414 31.551 8.414 L 29.448 8.414 L 29.448 4.207 L 37.8619 4.207 L 37.8619 37.862 L 4.2061 37.862 L 4.2061 29.448 Z" fill-rule="nonzero" stroke="none" stroke-linejoin="miter" stroke-linecap="butt" fill="#ff3343" stroke-width="1.0000000238418927"/></g></g><g transform="translate(0 0)" class="Text.cls"><rect x="0" y="0" width="65" height="75" fill="none" stroke="none"/><text fill="#000000" fill-opacity="1"/></g></g></svg></svg>