<svg id="draw.id" overflow="visible" v:layers="{&quot;default&quot;:{&quot;name&quot;:&quot;Default&quot;,&quot;print&quot;:1,&quot;display&quot;:1,&quot;publish&quot;:1}}" v:ver="5" x="500.5" xmlns="http://www.w3.org/2000/svg" xmlns:v="http://vecta.io" xmlns:xlink="http://www.w3.org/1999/xlink" y="500.5" v:stencils="{&quot;0&quot;:{&quot;id&quot;:&quot;stencil_0&quot;,&quot;expand&quot;:1,&quot;show_name&quot;:1},&quot;1&quot;:{&quot;id&quot;:&quot;stencil_25&quot;,&quot;expand&quot;:1,&quot;show_name&quot;:1}}"><style xmlns="http://www.w3.org/1999/xhtml"><![CDATA[#draw\.id{stroke:#000;stroke-linecap:round;stroke-linejoin:round;fill:#fff;fill-rule:evenodd;font-family:Roboto;font-size:14px;text-anchor:middle}#draw\.id text{paint-order:stroke;white-space:pre}#draw\.id .Text\.cls{stroke:none}]]></style><defs><style type="text/css">@import url("https://fonts.googleapis.com/css?family=Roboto+Condensed:400,400i,700,700i"); @import url("https://fonts.googleapis.com/css?family=Roboto:400,400i,700,700i"); @import url("https://fonts.googleapis.com/css?family=Cousine:400,400i,700,700i"); @import url("https://fonts.googleapis.com/css?family=Anonymous+Pro:400,400i,700,700i"); @import url("https://fonts.googleapis.com/css?family=Lato:400,400i,700,700i"); @import url("https://fonts.googleapis.com/css?family=Open+Sans:400,400i,700,700i");</style><linearGradient id="L-1-56-110308da6d81002e5cb8.grad" x1="-1.76%" x2="-1.76%" y1="-56.43%" y2="103.19%"><stop offset="0%" stop-color="#8da6d8"/><stop offset="100%" stop-color="#2e5cb8"/></linearGradient><linearGradient id="L001001000808080100100000000100.grad" x1="0%" y1="0%" x2="100%" y2="100%"><stop offset="0%" stop-color="#808080" stop-opacity="1"/><stop offset="100%" stop-color="#000000" stop-opacity="1"/></linearGradient><linearGradient id="L05010050252196F3100f54245.grad" x1="0%" y1="50%" x2="100%" y2="50%"><stop offset="25%" stop-color="#2196F3"/><stop offset="100%" stop-color="#f54245"/></linearGradient><linearGradient id="L05010050402196F302196F3100f44336.grad" x1="0%" y1="50%" x2="100%" y2="50%"><stop offset="40%" stop-color="#2196F3"/><stop offset="0%" stop-color="#2196F3"/><stop offset="100%" stop-color="#f44336"/></linearGradient><linearGradient id="L45055100080808010050ffffff100100808080100.grad" x1="45%" y1="0%" x2="55%" y2="100%"><stop offset="0%" stop-color="#808080" stop-opacity="1"/><stop offset="50%" stop-color="#ffffff" stop-opacity="1"/><stop offset="100%" stop-color="#808080" stop-opacity="1"/></linearGradient></defs><title xmlns="http://www.w3.org/1999/xhtml">demo</title><desc xmlns="http://www.w3.org/1999/xhtml"></desc><svg height="384.00000000000006" id="l6pdtyw7mo" overflow="visible" v:setup="{&quot;paper&quot;:&quot;CUSTOM&quot;,&quot;unit&quot;:&quot;mm&quot;,&quot;scale&quot;:{&quot;from&quot;:&quot;1&quot;,&quot;to&quot;:&quot;1&quot;},&quot;width&quot;:&quot;1024 mm&quot;,&quot;height&quot;:&quot;768 mm&quot;,&quot;margin&quot;:{&quot;top&quot;:&quot;0&quot;,&quot;bottom&quot;:&quot;0&quot;,&quot;left&quot;:&quot;0&quot;,&quot;right&quot;:&quot;0&quot;},&quot;orient&quot;:0}" viewBox="0 0 3870.236328125 2902.67724609375" width="512"><g id="l6wbda9lms" transform="translate(1647.4487618530272 1232.474958811142)" class=""><path d="M 285.1163 326.3422 L 158.395 326.3422 C 149.9955 326.3422 141.9378 329.2045 135.9995 334.3046 C 130.0621 339.4047 126.7203 346.3238 126.7203 353.5373 C 126.7203 360.7505 130.0621 367.6696 135.9995 372.7699 C 141.9378 377.8703 149.9955 380.7322 158.395 380.7322 L 285.1163 380.7322 C 293.5265 380.7322 301.5842 377.8703 307.5225 372.7699 C 313.4599 367.6696 316.8017 360.7505 316.8017 353.5373 C 316.8017 346.3238 313.4599 339.4047 307.5225 334.3046 C 301.5842 329.2045 293.5265 326.3422 285.1163 326.3422 Z M 411.8367 54.39 L 374.4612 54.39 C 367.9241 38.5196 355.8313 24.7793 339.8384 15.0327 C 323.8359 5.2959 304.7291 0.0446 285.1163 0 L 221.7658 0 C 202.1531 0.0446 183.0462 5.2959 167.0438 15.0327 C 151.0509 24.7793 138.958 38.5196 132.4201 54.39 L 95.0455 54.39 C 69.8362 54.39 45.6611 62.9856 27.8366 78.2859 C 10.0141 93.5874 0 114.336 0 135.9755 L 0 462.3176 C 0 483.958 10.0141 504.7066 27.8366 520.0071 C 45.6611 535.3078 69.8362 543.903 95.0455 543.903 L 411.8367 543.903 C 437.0459 543.903 461.2211 535.3078 479.0449 520.0071 C 496.869 504.7066 506.882 483.958 506.882 462.3176 L 506.882 135.9755 C 506.882 114.336 496.869 93.5874 479.0449 78.2859 C 461.2211 62.9856 437.0459 54.39 411.8367 54.39 L 411.8367 54.39 Z M 190.0804 81.5855 C 190.0804 74.3716 193.4224 67.4525 199.3596 62.3524 C 205.2979 57.2523 213.3556 54.39 221.7658 54.39 L 285.1163 54.39 C 293.5265 54.39 301.5842 57.2523 307.5225 62.3524 C 313.4599 67.4525 316.8017 74.3716 316.8017 81.5855 L 316.8017 108.7811 L 190.0804 108.7811 L 190.0804 81.5855 Z M 443.5221 462.3176 C 443.5221 469.5312 440.1801 476.4503 434.2429 481.5504 C 428.3054 486.6508 420.2469 489.5131 411.8367 489.5131 L 95.0455 489.5131 C 86.6354 489.5131 78.5766 486.6508 72.6393 481.5504 C 66.702 476.4503 63.3601 469.5312 63.3601 462.3176 L 63.3601 135.9755 C 63.3601 128.7627 66.702 121.8436 72.6393 116.7435 C 78.5766 111.6434 86.6354 108.7811 95.0455 108.7811 L 126.7203 108.7811 L 126.7203 135.9755 C 126.7203 143.1895 130.0621 150.1086 135.9995 155.2087 C 141.9378 160.3088 149.9955 163.1711 158.395 163.1711 L 348.487 163.1711 C 356.8866 163.1711 364.9453 160.3088 370.8826 155.2087 C 376.82 150.1086 380.1617 143.1895 380.1617 135.9755 L 380.1617 108.7811 L 411.8367 108.7811 C 420.2469 108.7811 428.3054 111.6434 434.2429 116.7435 C 440.1801 121.8436 443.5221 128.7627 443.5221 135.9755 L 443.5221 462.3176 Z M 348.487 217.5611 L 158.395 217.5611 C 149.9955 217.5611 141.9378 220.4234 135.9995 225.5235 C 130.0621 230.6236 126.7203 237.5434 126.7203 244.7566 C 126.7203 251.9705 130.0621 258.8897 135.9995 263.9898 C 141.9378 269.0899 149.9955 271.9521 158.395 271.9521 L 348.487 271.9521 C 356.8866 271.9521 364.9453 269.0899 370.8826 263.9898 C 376.82 258.8897 380.1617 251.9705 380.1617 244.7566 C 380.1617 237.5434 376.82 230.6236 370.8826 225.5235 C 364.9453 220.4234 356.8866 217.5611 348.487 217.5611 Z" fill-rule="nonzero" stroke="none" stroke-linejoin="miter" stroke-linecap="butt" fill="#000000"/></g></svg></svg>