<svg id="draw.id" overflow="visible" v:layers="{&quot;default&quot;:{&quot;name&quot;:&quot;Default&quot;,&quot;print&quot;:1,&quot;display&quot;:1,&quot;publish&quot;:1}}" v:ver="5" x="500.5" xmlns="http://www.w3.org/2000/svg" xmlns:v="http://vecta.io" xmlns:xlink="http://www.w3.org/1999/xlink" y="500.5" v:stencils="{&quot;0&quot;:{&quot;id&quot;:&quot;stencil_0&quot;,&quot;expand&quot;:1,&quot;show_name&quot;:1},&quot;1&quot;:{&quot;id&quot;:&quot;stencil_25&quot;,&quot;expand&quot;:1,&quot;show_name&quot;:1}}"><style xmlns="http://www.w3.org/1999/xhtml"><![CDATA[#draw\.id{stroke:#000;stroke-linecap:round;stroke-linejoin:round;fill:#fff;fill-rule:evenodd;font-family:Roboto;font-size:14px;text-anchor:middle}#draw\.id text{paint-order:stroke;white-space:pre}#draw\.id .Text\.cls{stroke:none}]]></style><defs><style type="text/css">@import url("https://fonts.googleapis.com/css?family=Roboto+Condensed:400,400i,700,700i"); @import url("https://fonts.googleapis.com/css?family=Roboto:400,400i,700,700i"); @import url("https://fonts.googleapis.com/css?family=Cousine:400,400i,700,700i"); @import url("https://fonts.googleapis.com/css?family=Anonymous+Pro:400,400i,700,700i"); @import url("https://fonts.googleapis.com/css?family=Lato:400,400i,700,700i"); @import url("https://fonts.googleapis.com/css?family=Open+Sans:400,400i,700,700i");</style><linearGradient id="L-1-56-110308da6d81002e5cb8.grad" x1="-1.76%" x2="-1.76%" y1="-56.43%" y2="103.19%"><stop offset="0%" stop-color="#8da6d8"/><stop offset="100%" stop-color="#2e5cb8"/></linearGradient><linearGradient id="L001001000808080100100000000100.grad" x1="0%" y1="0%" x2="100%" y2="100%"><stop offset="0%" stop-color="#808080" stop-opacity="1"/><stop offset="100%" stop-color="#000000" stop-opacity="1"/></linearGradient><linearGradient id="L05010050252196F3100f54245.grad" x1="0%" y1="50%" x2="100%" y2="50%"><stop offset="25%" stop-color="#2196F3"/><stop offset="100%" stop-color="#f54245"/></linearGradient><linearGradient id="L05010050402196F302196F3100f44336.grad" x1="0%" y1="50%" x2="100%" y2="50%"><stop offset="40%" stop-color="#2196F3"/><stop offset="0%" stop-color="#2196F3"/><stop offset="100%" stop-color="#f44336"/></linearGradient><linearGradient id="L45055100080808010050ffffff100100808080100.grad" x1="45%" y1="0%" x2="55%" y2="100%"><stop offset="0%" stop-color="#808080" stop-opacity="1"/><stop offset="50%" stop-color="#ffffff" stop-opacity="1"/><stop offset="100%" stop-color="#808080" stop-opacity="1"/></linearGradient></defs><title xmlns="http://www.w3.org/1999/xhtml">demo</title><desc xmlns="http://www.w3.org/1999/xhtml"></desc><svg height="384.00000000000006" id="l6pdtyw7mo" overflow="visible" v:setup="{&quot;paper&quot;:&quot;CUSTOM&quot;,&quot;unit&quot;:&quot;mm&quot;,&quot;scale&quot;:{&quot;from&quot;:&quot;1&quot;,&quot;to&quot;:&quot;1&quot;},&quot;width&quot;:&quot;1024 mm&quot;,&quot;height&quot;:&quot;768 mm&quot;,&quot;margin&quot;:{&quot;top&quot;:&quot;0&quot;,&quot;bottom&quot;:&quot;0&quot;,&quot;left&quot;:&quot;0&quot;,&quot;right&quot;:&quot;0&quot;},&quot;orient&quot;:0}" viewBox="0 0 3870.236328125 2902.67724609375" width="512"><g id="l6wbip76n0" transform="translate(778.1573684204102 1119.089165378525)" class=""><path d="M 375.3265 180.8742 C 374.2815 181.9413 373.3537 183.1123 372.5584 184.3644 C 371.6459 185.4758 370.9443 186.7283 370.4837 188.0696 C 369.782 189.3734 369.3142 190.7735 369.1037 192.2188 C 368.1676 196.398 368.6514 200.7475 370.4837 204.6524 C 371.5211 207.3571 373.1667 209.8172 375.3185 211.8551 C 377.471 213.8925 380.0681 215.4563 382.9298 216.4341 C 385.6593 217.6565 388.6613 218.257 391.6796 218.1831 C 394.6736 218.2124 397.6527 217.6937 400.4371 216.6494 C 403.1894 215.3892 405.7472 213.774 408.04 211.8551 C 410.1767 209.8172 411.8611 207.3941 413.0153 204.7416 C 414.1615 202.0813 414.7386 199.2357 414.7231 196.3606 C 414.8009 193.5006 414.1692 190.6629 412.875 188.0696 C 411.7126 185.4241 410.0751 182.9937 408.04 180.8742 C 405.8875 178.8517 403.3377 177.2509 400.5303 176.1618 C 397.723 175.0801 394.7132 174.5242 391.6796 174.5462 C 388.6691 174.5759 385.6982 175.1686 382.9298 176.2877 C 380.099 177.3247 377.5179 178.8885 375.3265 180.8742 Z M 280.399 271.6302 C 279.4868 272.7489 278.7852 274.0014 278.325 275.3426 C 277.4599 276.6168 276.8354 278.0172 276.4848 279.4846 C 275.7905 282.285 275.7905 285.1975 276.4848 287.9984 L 277.865 291.9255 L 279.939 295.8528 L 282.6998 299.1208 C 287.2303 303.2109 293.2585 305.4855 299.5202 305.4488 C 302.5538 305.4709 305.5565 304.915 308.3636 303.8333 C 311.1707 302.7441 313.7284 301.1432 315.8809 299.1208 C 317.9164 297.0014 319.5539 294.571 320.7159 291.9255 C 322.1506 288.6208 322.7045 285.0271 322.3303 281.4776 C 321.9637 277.9213 320.6695 274.5051 318.5792 271.5336 C 316.4814 268.5552 313.6506 266.1174 310.3286 264.4201 C 307.0065 262.7306 303.2947 261.8339 299.5202 261.812 C 293.4221 261.8937 287.5815 264.1538 283.1598 268.14 L 280.399 271.6302 Z M 375.3265 268.14 C 373.2287 270.215 371.5834 272.6673 370.4837 275.3426 C 368.5498 279.292 367.9108 283.7008 368.6434 287.9984 L 370.0237 291.9255 C 370.5306 293.3112 371.2248 294.6375 372.0981 295.8528 C 372.9481 296.9941 373.8684 298.0904 374.8589 299.1208 C 377.0503 301.1138 379.639 302.6696 382.462 303.7073 C 385.2224 304.8631 388.2093 305.4561 391.2193 305.4561 C 394.2374 305.4561 397.2163 304.8631 399.9764 303.7073 C 402.7683 302.6031 405.3419 301.0548 407.58 299.1208 C 409.7947 297.1199 411.5725 294.7193 412.7967 292.059 C 414.0287 289.3992 414.6764 286.5389 414.7231 283.6337 C 414.8009 280.7741 414.1692 277.9287 412.875 275.3426 C 411.7126 272.6971 410.0751 270.2667 408.04 268.14 C 405.8019 266.2135 403.2286 264.6649 400.4371 263.5608 C 397.6763 262.4049 394.6974 261.812 391.6796 261.812 C 388.6691 261.812 385.6824 262.4049 382.9298 263.5608 C 380.099 264.5984 377.5179 266.1543 375.3265 268.14 Z M 278.325 204.6524 C 279.4247 207.3276 281.0622 209.7802 283.1598 211.8551 C 287.5815 215.8412 293.4221 218.1012 299.5202 218.1831 C 303.2947 218.1604 307.0065 217.2643 310.3286 215.5742 C 313.6506 213.8777 316.4814 211.4397 318.5792 208.4612 C 320.6695 205.4899 321.9637 202.074 322.3303 198.5248 C 322.7045 194.9678 322.1506 191.374 320.7159 188.0696 C 319.5539 185.4241 317.9164 182.9937 315.8809 180.8742 C 313.7284 178.8517 311.1707 177.2509 308.3636 176.1618 C 305.5565 175.0801 302.5538 174.5242 299.5202 174.5462 C 293.4221 174.6281 287.5815 176.8881 283.1598 180.8742 C 279.9626 183.9421 277.8022 187.8322 276.937 192.0708 C 276.079 196.3014 276.5627 200.681 278.325 204.6524 Z M 375.3265 93.6011 C 373.2914 95.7206 371.6539 98.1583 370.4837 100.7957 C 368.7215 104.7753 368.2381 109.1548 369.0961 113.3859 C 369.9614 117.617 372.1293 121.5138 375.3265 124.582 C 377.5179 126.5677 380.099 128.1234 382.9298 129.1612 C 385.6824 130.3169 388.6691 130.9174 391.6796 130.9174 C 394.6974 130.9174 397.6763 130.3169 400.4371 129.1612 C 403.2286 128.0569 405.8019 126.5084 408.04 124.582 C 410.1767 122.5443 411.8611 120.1285 413.0153 117.4685 C 414.1615 114.8084 414.7386 111.9626 414.7231 109.0875 C 414.8009 106.2277 414.1692 103.39 412.875 100.7957 C 411.7126 98.1583 410.0751 95.7206 408.04 93.6011 C 404.8036 90.5709 400.6863 88.5252 396.218 87.7031 C 391.7496 86.8884 387.1254 87.3477 382.9298 89.0146 C 380.099 90.0589 377.5179 91.6154 375.3265 93.6011 Z M 92.1607 109.0875 L 92.1607 283.6337 C 92.1607 289.4213 94.5882 294.971 98.9082 299.0609 C 103.2291 303.1514 109.0897 305.4488 115.2 305.4488 L 207.3607 305.4488 C 213.475 305.4488 219.3318 303.1514 223.6516 299.0609 C 227.9724 294.971 230.3973 289.4213 230.3973 283.6337 L 230.3973 109.0875 C 230.3973 103.3008 227.9724 97.7582 223.6516 93.6603 C 219.3318 89.5703 213.475 87.2731 207.3607 87.2731 L 115.2 87.2731 C 109.0897 87.2731 103.2291 89.5703 98.9082 93.6603 C 94.5882 97.7582 92.1607 103.3008 92.1607 109.0875 Z M 184.3205 130.91 L 184.3205 261.812 L 138.2407 261.812 L 138.2407 130.91 L 184.3205 130.91 Z M 0 65.4514 L 0 327.2707 C 0 344.6321 7.2822 361.2745 20.2444 373.5525 C 33.2076 385.8305 50.7885 392.7219 69.1202 392.7219 L 437.7586 392.7219 C 456.0925 392.7219 473.6771 385.8305 486.6382 373.5525 C 499.5987 361.2745 506.882 344.6321 506.882 327.2707 L 506.882 65.4514 C 506.882 48.0976 499.5987 31.4476 486.6382 19.1697 C 473.6771 6.8986 456.0925 0 437.7586 0 L 69.1202 0 C 50.7885 0 33.2076 6.8986 20.2444 19.1697 C 7.2822 31.4476 0 48.0976 0 65.4514 Z M 437.7586 43.6369 C 443.8727 43.6369 449.7291 45.9336 454.0572 50.0241 C 458.3775 54.1214 460.8023 59.6719 460.8023 65.4514 L 460.8023 327.2707 C 460.8023 333.0574 458.3775 338.6078 454.0572 342.6979 C 449.7291 346.7882 443.8727 349.0851 437.7586 349.0851 L 69.1202 349.0851 C 63.009 349.0851 57.1493 346.7882 52.8285 342.6979 C 48.5074 338.6078 46.0808 333.0574 46.0808 327.2707 L 46.0808 65.4514 C 46.0808 59.6719 48.5074 54.1214 52.8285 50.0241 C 57.1493 45.9336 63.009 43.6369 69.1202 43.6369 L 437.7586 43.6369 Z M 280.399 97.0913 C 279.4868 98.2029 278.7852 99.4625 278.325 100.7957 C 277.6232 102.1005 277.1555 103.5004 276.9446 104.9457 C 276.2505 107.7467 276.2505 110.6586 276.9446 113.4524 L 278.325 117.3793 L 280.399 121.3068 L 283.1598 124.582 C 287.5815 128.5681 293.4221 130.8281 299.5202 130.91 C 303.2947 130.8873 307.0065 129.9987 310.3286 128.3011 C 313.6506 126.6048 316.4814 124.1666 318.5792 121.1956 C 320.6695 118.2168 321.9637 114.8084 322.3303 111.2517 C 322.7045 107.6949 322.1506 104.1082 320.7159 100.7957 C 319.5539 98.1583 317.9164 95.7206 315.8809 93.6011 C 313.7284 91.5788 311.1707 89.9778 308.3636 88.8961 C 305.5565 87.807 302.5538 87.2585 299.5202 87.2731 C 293.4221 87.355 287.5815 89.615 283.1598 93.6011 L 280.399 97.0913 Z" fill-rule="nonzero" stroke="none" stroke-linejoin="miter" stroke-linecap="butt" fill="#ff3343"/><g transform="translate(0 0)" class="Text.cls"><rect x="0" y="0" width="506.88188348857955" height="392.7216796875" fill="none" stroke="none"/><text fill="#000000" fill-opacity="1"/></g></g><g id="l6wbjcuun1" transform="translate(827.5923607701026 930.750585342474)" class=""><path d="M 4.9228 9.2959 C 3.3411 10.7396 2.092 12.4451 1.2477 14.3221 C 0.4032 16.1901 -0.0203 18.1933 0.0008 20.2146 L 1.3936 112.3026 C 1.4329 114.3239 1.917 116.3182 2.8186 118.1681 C 3.7193 120.0268 5.0194 121.6962 6.6439 123.095 C 8.2499 124.5208 10.153 125.6396 12.2433 126.3977 C 14.3327 127.1558 16.5689 127.5347 18.8231 127.5165 L 87.3676 126.6774 L 352.102 123.456 C 354.356 123.4289 356.5805 122.9867 358.6437 122.1836 C 360.7067 121.3713 362.5785 120.2073 364.1383 118.7545 L 414.7894 72.0835 C 417.9595 69.1689 419.7105 65.2434 419.6503 61.1647 C 419.5797 57.0951 417.7182 53.2057 414.4674 50.3723 L 362.4173 4.9554 C 360.797 3.367 358.8147 2.1127 356.6107 1.2556 C 354.4067 0.4072 352.0317 -0.0258 349.626 0.0012 L 85.6317 3.8633 L 17.5622 4.0438 C 15.2838 4.1251 13.0383 4.5583 10.9191 5.3162 C 9.8481 6.0924 8.8861 6.9767 8.0518 7.9602 C 7.4378 8.4205 6.8782 8.9349 6.379 9.4943 L 4.9228 9.2959 Z M 343.5577 31.3591 L 378.298 61.6701 L 344.4937 92.8201 L 103.979 95.7439 L 103.049 34.2829 L 343.5577 31.3591 Z M 68.8985 34.6979 L 69.8275 96.1589 L 35.5529 96.4657 L 34.6273 35.2212 L 68.8985 34.6979 Z" fill-rule="nonzero" stroke="none" stroke-linejoin="miter" stroke-linecap="butt" fill="#ff3343"/></g></svg></svg>